<svg width="40" height="40" viewBox="0 0 40 40" fill="none" xmlns="http://www.w3.org/2000/svg">
<rect width="40" height="40" fill="black"/>
<path d="M4.384 18.36C4.27733 18.36 4.18667 18.3227 4.112 18.248C4.03733 18.1733 4 18.0827 4 17.976V7.56C4 7.44267 4.03733 7.34667 4.112 7.272C4.18667 7.19733 4.27733 7.16 4.384 7.16H8.288C9.36533 7.16 10.2507 7.32533 10.944 7.656C11.648 7.98667 12.176 8.47733 12.528 9.128C12.8907 9.77867 13.0773 10.5733 13.088 11.512C13.1093 11.9813 13.12 12.3973 13.12 12.76C13.12 13.1227 13.1093 13.5333 13.088 13.992C13.0667 14.984 12.8853 15.8053 12.544 16.456C12.2027 17.096 11.6853 17.576 10.992 17.896C10.3093 18.2053 9.43467 18.36 8.368 18.36H4.384ZM6.224 16.52H8.288C8.88533 16.52 9.37067 16.4347 9.744 16.264C10.1173 16.0933 10.3893 15.8213 10.56 15.448C10.7413 15.064 10.8373 14.5627 10.848 13.944C10.8587 13.624 10.864 13.3467 10.864 13.112C10.8747 12.8667 10.8747 12.6267 10.864 12.392C10.864 12.1467 10.8587 11.8693 10.848 11.56C10.8267 10.6853 10.608 10.04 10.192 9.624C9.776 9.208 9.11467 9 8.208 9H6.224V16.52Z" fill="#68C5EB"/>
<path d="M17.474 18.52C16.9193 18.52 16.418 18.4133 15.97 18.2C15.522 17.976 15.1647 17.6827 14.898 17.32C14.642 16.9467 14.514 16.5307 14.514 16.072C14.514 15.3253 14.818 14.7333 15.426 14.296C16.034 13.848 16.8287 13.5493 17.81 13.4L20.002 13.08V12.744C20.002 12.296 19.89 11.9493 19.666 11.704C19.442 11.4587 19.058 11.336 18.514 11.336C18.13 11.336 17.8153 11.416 17.57 11.576C17.3353 11.7253 17.1593 11.928 17.042 12.184C16.9567 12.3227 16.834 12.392 16.674 12.392H15.41C15.2927 12.392 15.202 12.36 15.138 12.296C15.0847 12.232 15.058 12.1467 15.058 12.04C15.0687 11.8693 15.138 11.6613 15.266 11.416C15.4047 11.1707 15.6073 10.936 15.874 10.712C16.1513 10.4773 16.5087 10.28 16.946 10.12C17.3833 9.96 17.9113 9.88 18.53 9.88C19.202 9.88 19.7673 9.96533 20.226 10.136C20.6953 10.296 21.0687 10.5147 21.346 10.792C21.6233 11.0693 21.826 11.3947 21.954 11.768C22.082 12.1413 22.146 12.536 22.146 12.952V17.976C22.146 18.0827 22.1087 18.1733 22.034 18.248C21.9593 18.3227 21.8687 18.36 21.762 18.36H20.466C20.3487 18.36 20.2527 18.3227 20.178 18.248C20.114 18.1733 20.082 18.0827 20.082 17.976V17.352C19.9433 17.544 19.7567 17.7307 19.522 17.912C19.2873 18.0933 18.9993 18.2427 18.658 18.36C18.3273 18.4667 17.9327 18.52 17.474 18.52ZM18.018 17C18.3913 17 18.7273 16.92 19.026 16.76C19.3353 16.6 19.5753 16.3547 19.746 16.024C19.9273 15.6827 20.018 15.256 20.018 14.744V14.408L18.418 14.664C17.7887 14.76 17.3193 14.9147 17.01 15.128C16.7007 15.3413 16.546 15.6027 16.546 15.912C16.546 16.1467 16.6153 16.3493 16.754 16.52C16.9033 16.68 17.09 16.8027 17.314 16.888C17.538 16.9627 17.7727 17 18.018 17Z" fill="#68C5EB"/>
<path d="M24.5826 18.36C24.476 18.36 24.3853 18.3227 24.3106 18.248C24.236 18.1733 24.1986 18.0827 24.1986 17.976V10.44C24.1986 10.3227 24.236 10.2267 24.3106 10.152C24.3853 10.0773 24.476 10.04 24.5826 10.04H25.8786C25.9853 10.04 26.076 10.0773 26.1506 10.152C26.236 10.2267 26.2786 10.3227 26.2786 10.44V11.096C26.524 10.7547 26.8386 10.4933 27.2226 10.312C27.6173 10.1307 28.0706 10.04 28.5826 10.04H29.2386C29.356 10.04 29.4466 10.0773 29.5106 10.152C29.5853 10.2267 29.6226 10.3173 29.6226 10.424V11.576C29.6226 11.6827 29.5853 11.7733 29.5106 11.848C29.4466 11.9227 29.356 11.96 29.2386 11.96H27.9906C27.4786 11.96 27.0786 12.104 26.7906 12.392C26.5133 12.6693 26.3746 13.064 26.3746 13.576V17.976C26.3746 18.0827 26.3373 18.1733 26.2626 18.248C26.188 18.3227 26.092 18.36 25.9746 18.36H24.5826Z" fill="#68C5EB"/>
<path d="M34.6305 18.36C33.9905 18.36 33.4518 18.248 33.0145 18.024C32.5772 17.8 32.2518 17.4693 32.0385 17.032C31.8252 16.584 31.7185 16.0293 31.7185 15.368V11.736H30.4545C30.3478 11.736 30.2572 11.6987 30.1825 11.624C30.1078 11.5493 30.0705 11.4533 30.0705 11.336V10.424C30.0705 10.3173 30.1078 10.2267 30.1825 10.152C30.2572 10.0773 30.3478 10.04 30.4545 10.04H31.7185V7.384C31.7185 7.27733 31.7505 7.18667 31.8145 7.112C31.8892 7.03733 31.9852 7 32.1025 7H33.3985C33.5052 7 33.5958 7.03733 33.6705 7.112C33.7452 7.18667 33.7825 7.27733 33.7825 7.384V10.04H35.7825C35.8892 10.04 35.9798 10.0773 36.0545 10.152C36.1292 10.2267 36.1665 10.3173 36.1665 10.424V11.336C36.1665 11.4533 36.1292 11.5493 36.0545 11.624C35.9798 11.6987 35.8892 11.736 35.7825 11.736H33.7825V15.208C33.7825 15.6453 33.8572 15.9867 34.0065 16.232C34.1665 16.4773 34.4385 16.6 34.8225 16.6H35.9265C36.0332 16.6 36.1238 16.6373 36.1985 16.712C36.2732 16.7867 36.3105 16.8773 36.3105 16.984V17.976C36.3105 18.0827 36.2732 18.1733 36.1985 18.248C36.1238 18.3227 36.0332 18.36 35.9265 18.36H34.6305Z" fill="#68C5EB"/>
<path d="M7.728 32.72C7.62133 32.72 7.53067 32.6827 7.456 32.608C7.38133 32.5333 7.344 32.4427 7.344 32.336V23.488H4.384C4.27733 23.488 4.18667 23.4507 4.112 23.376C4.03733 23.3013 4 23.2107 4 23.104V21.92C4 21.8027 4.03733 21.7067 4.112 21.632C4.18667 21.5573 4.27733 21.52 4.384 21.52H12.544C12.6613 21.52 12.7573 21.5573 12.832 21.632C12.9067 21.7067 12.944 21.8027 12.944 21.92V23.104C12.944 23.2107 12.9067 23.3013 12.832 23.376C12.7573 23.4507 12.6613 23.488 12.544 23.488H9.6V32.336C9.6 32.4427 9.56267 32.5333 9.488 32.608C9.41333 32.6827 9.31733 32.72 9.2 32.72H7.728Z" fill="white"/>
<path d="M16.4908 32.88C15.3068 32.88 14.3681 32.5387 13.6748 31.856C12.9814 31.1733 12.6081 30.2027 12.5548 28.944C12.5441 28.8373 12.5387 28.704 12.5387 28.544C12.5387 28.3733 12.5441 28.24 12.5548 28.144C12.5974 27.3333 12.7788 26.64 13.0988 26.064C13.4294 25.4773 13.8827 25.0293 14.4587 24.72C15.0347 24.4 15.7121 24.24 16.4908 24.24C17.3548 24.24 18.0801 24.4213 18.6667 24.784C19.2534 25.136 19.6961 25.632 19.9948 26.272C20.2934 26.9013 20.4427 27.632 20.4427 28.464V28.8C20.4427 28.9067 20.4054 28.9973 20.3307 29.072C20.2561 29.1467 20.1601 29.184 20.0428 29.184H14.7308C14.7308 29.184 14.7308 29.2 14.7308 29.232C14.7308 29.264 14.7308 29.2907 14.7308 29.312C14.7414 29.6853 14.8108 30.032 14.9388 30.352C15.0774 30.6613 15.2748 30.912 15.5308 31.104C15.7974 31.296 16.1121 31.392 16.4748 31.392C16.7734 31.392 17.0241 31.3493 17.2268 31.264C17.4294 31.168 17.5947 31.0613 17.7227 30.944C17.8507 30.8267 17.9414 30.7307 17.9948 30.656C18.0908 30.528 18.1654 30.4533 18.2188 30.432C18.2827 30.4 18.3734 30.384 18.4907 30.384H19.8668C19.9734 30.384 20.0587 30.416 20.1227 30.48C20.1974 30.544 20.2294 30.624 20.2188 30.72C20.2081 30.8907 20.1174 31.0987 19.9468 31.344C19.7868 31.5893 19.5521 31.8293 19.2428 32.064C18.9334 32.2987 18.5441 32.496 18.0748 32.656C17.6161 32.8053 17.0881 32.88 16.4908 32.88ZM14.7308 27.84H18.2668V27.792C18.2668 27.376 18.1974 27.0133 18.0588 26.704C17.9201 26.384 17.7174 26.1387 17.4508 25.968C17.1841 25.7867 16.8641 25.696 16.4908 25.696C16.1174 25.696 15.7974 25.7867 15.5308 25.968C15.2641 26.1387 15.0614 26.384 14.9228 26.704C14.7948 27.0133 14.7308 27.376 14.7308 27.792V27.84Z" fill="white"/>
<path d="M25.2931 32.88C24.6531 32.88 24.1038 32.8053 23.6451 32.656C23.1971 32.5067 22.8291 32.32 22.5411 32.096C22.2531 31.872 22.0398 31.648 21.9011 31.424C21.7625 31.2 21.6878 31.0133 21.6771 30.864C21.6665 30.7467 21.6985 30.656 21.7731 30.592C21.8585 30.5173 21.9491 30.48 22.0451 30.48H23.3091C23.3518 30.48 23.3891 30.4853 23.4211 30.496C23.4531 30.5067 23.4958 30.5387 23.5491 30.592C23.6878 30.7093 23.8318 30.832 23.9811 30.96C24.1411 31.088 24.3278 31.2 24.5411 31.296C24.7545 31.3813 25.0211 31.424 25.3411 31.424C25.7571 31.424 26.1038 31.344 26.3811 31.184C26.6691 31.0133 26.8131 30.7733 26.8131 30.464C26.8131 30.24 26.7491 30.0587 26.6211 29.92C26.5038 29.7813 26.2798 29.6587 25.9491 29.552C25.6185 29.4347 25.1491 29.312 24.5411 29.184C23.9438 29.0453 23.4478 28.8693 23.0531 28.656C22.6585 28.4427 22.3651 28.176 22.1731 27.856C21.9811 27.536 21.8851 27.1627 21.8851 26.736C21.8851 26.32 22.0078 25.9253 22.2531 25.552C22.5091 25.168 22.8825 24.8533 23.3731 24.608C23.8745 24.3627 24.4931 24.24 25.2291 24.24C25.8051 24.24 26.3065 24.3147 26.7331 24.464C27.1598 24.6027 27.5118 24.7787 27.7891 24.992C28.0771 25.2053 28.2958 25.424 28.4451 25.648C28.5945 25.8613 28.6745 26.048 28.6851 26.208C28.6958 26.3253 28.6638 26.4213 28.5891 26.496C28.5145 26.56 28.4291 26.592 28.3331 26.592H27.1491C27.0958 26.592 27.0478 26.5813 27.0051 26.56C26.9625 26.5387 26.9198 26.512 26.8771 26.48C26.7598 26.3733 26.6318 26.2613 26.4931 26.144C26.3545 26.016 26.1838 25.9093 25.9811 25.824C25.7891 25.7387 25.5331 25.696 25.2131 25.696C24.8078 25.696 24.4985 25.7867 24.2851 25.968C24.0718 26.1387 23.9651 26.3573 23.9651 26.624C23.9651 26.8053 24.0131 26.9653 24.1091 27.104C24.2158 27.232 24.4238 27.3547 24.7331 27.472C25.0425 27.5893 25.5118 27.712 26.1411 27.84C26.8558 27.968 27.4211 28.16 27.8371 28.416C28.2638 28.6613 28.5625 28.9493 28.7331 29.28C28.9145 29.6 29.0051 29.9573 29.0051 30.352C29.0051 30.832 28.8611 31.264 28.5731 31.648C28.2958 32.032 27.8798 32.336 27.3251 32.56C26.7811 32.7733 26.1038 32.88 25.2931 32.88Z" fill="white"/>
<path d="M34.3855 32.72C33.7455 32.72 33.2068 32.608 32.7695 32.384C32.3322 32.16 32.0068 31.8293 31.7935 31.392C31.5802 30.944 31.4735 30.3893 31.4735 29.728V26.096H30.2095C30.1028 26.096 30.0122 26.0587 29.9375 25.984C29.8628 25.9093 29.8255 25.8133 29.8255 25.696V24.784C29.8255 24.6773 29.8628 24.5867 29.9375 24.512C30.0122 24.4373 30.1028 24.4 30.2095 24.4H31.4735V21.744C31.4735 21.6373 31.5055 21.5467 31.5695 21.472C31.6442 21.3973 31.7402 21.36 31.8575 21.36H33.1535C33.2602 21.36 33.3508 21.3973 33.4255 21.472C33.5002 21.5467 33.5375 21.6373 33.5375 21.744V24.4H35.5375C35.6442 24.4 35.7348 24.4373 35.8095 24.512C35.8842 24.5867 35.9215 24.6773 35.9215 24.784V25.696C35.9215 25.8133 35.8842 25.9093 35.8095 25.984C35.7348 26.0587 35.6442 26.096 35.5375 26.096H33.5375V29.568C33.5375 30.0053 33.6122 30.3467 33.7615 30.592C33.9215 30.8373 34.1935 30.96 34.5775 30.96H35.6815C35.7882 30.96 35.8788 30.9973 35.9535 31.072C36.0282 31.1467 36.0655 31.2373 36.0655 31.344V32.336C36.0655 32.4427 36.0282 32.5333 35.9535 32.608C35.8788 32.6827 35.7882 32.72 35.6815 32.72H34.3855Z" fill="white"/>
</svg>
